# Green Gem Crystal Cluster
mtllib GreenGemCluster.mtl
usemtl GreenGem

v 0.220000 0.200000 0.000000
v 0.110000 0.200000 0.190526
v -0.110000 0.200000 0.190526
v -0.220000 0.200000 0.000000
v -0.110000 0.200000 -0.190526
v 0.110000 0.200000 -0.190526
v 0.187000 1.400000 0.000000
v 0.093500 1.400000 0.161947
v -0.093500 1.400000 0.161947
v -0.187000 1.400000 0.000000
v -0.093500 1.400000 -0.161947
v 0.093500 1.400000 -0.161947
v 0.000000 1.900000 0.000000
v -0.073588 0.114240 -0.100000
v -0.164886 0.116867 0.055106
v -0.341298 0.152628 0.055106
v -0.426412 0.185760 -0.100000
v -0.335114 0.183133 -0.255106
v -0.158702 0.147372 -0.255106
v 0.077859 0.997257 -0.010150
v 0.000256 0.999491 0.121690
v -0.149694 1.029887 0.121690
v -0.222041 1.058050 -0.010150
v -0.144438 1.055816 -0.141990
v 0.005512 1.025420 -0.141990
v 0.006980 1.417721 0.029783
v 0.455026 0.189585 0.050000
v 0.375800 0.176502 0.188391
v 0.220774 0.136918 0.188391
v 0.144974 0.110415 0.050000
v 0.224200 0.123498 -0.088391
v 0.379226 0.163082 -0.088391
v 0.234096 0.957808 0.010017
v 0.166754 0.946688 0.127649
v 0.034982 0.913041 0.127649
v -0.029448 0.890514 0.010017
v 0.037894 0.901634 -0.107616
v 0.169667 0.935281 -0.107616
v 0.015841 1.262857 -0.007476
v 0.248877 0.114944 0.250000
v 0.198147 0.116021 0.336170
v 0.099269 0.101077 0.336170
v 0.051123 0.085056 0.250000
v 0.101853 0.083979 0.163830
v 0.200731 0.098923 0.163830
v 0.159700 0.604618 0.200083
v 0.116579 0.605533 0.273328
v 0.032533 0.592831 0.273328
v -0.008391 0.579213 0.200083
v 0.034730 0.578298 0.126839
v 0.118775 0.591000 0.126839
v 0.045916 0.788682 0.180117
v -0.111011 0.086551 0.200000
v -0.156087 0.089424 0.277845
v -0.245077 0.102873 0.277845
v -0.288989 0.113449 0.200000
v -0.243913 0.110576 0.122155
v -0.154923 0.097127 0.122155
v -0.064658 0.483582 0.219992
v -0.102974 0.486024 0.286160
v -0.178615 0.497456 0.286160
v -0.215940 0.506446 0.219992
v -0.177625 0.504004 0.153824
v -0.101984 0.492572 0.153824
v -0.113434 0.672771 0.228988
v 0.269650 0.106988 -0.200000
v 0.235429 0.097472 -0.139681
v 0.165779 0.090484 -0.139681
v 0.130350 0.093012 -0.200000
v 0.164571 0.102528 -0.260319
v 0.234221 0.109516 -0.260319
v 0.229402 0.402950 -0.170050
v 0.200315 0.394861 -0.118779
v 0.141112 0.388921 -0.118779
v 0.110997 0.391070 -0.170050
v 0.140085 0.399159 -0.221321
v 0.199287 0.405099 -0.221321
v 0.158279 0.515814 -0.158070
v 0.000000 -0.050000 0.000000
v 1.056000 0.050000 0.000000
v 0.884092 0.093301 0.510431
v 0.504000 0.006699 0.872954
v 0.000000 0.050000 0.816000
v -0.456000 0.093301 0.789815
v -1.028092 0.006699 0.593569
v -0.864000 0.050000 0.000000
v -0.778677 0.093301 -0.449569
v -0.456000 0.006699 -0.789815
v -0.000000 0.050000 -1.104000
v 0.504000 0.093301 -0.872954
v 0.634677 0.006699 -0.366431
v 0.779128 0.192074 0.000000
v 0.670715 0.152359 0.387238
v 0.271208 0.105567 0.469747
v 0.000000 0.192074 0.787606
v -0.402294 0.152359 0.696794
v -0.598757 0.105567 0.345693
v -0.660872 0.192074 0.000000
v -0.576362 0.152359 -0.332762
v -0.448792 0.105567 -0.777330
v -0.000000 0.192074 -0.652394
v 0.317706 0.152359 -0.550283
v 0.648319 0.105567 -0.374307
v 0.456218 0.295465 0.000000
v 0.338793 0.209248 0.195602
v 0.268507 0.245287 0.465068
v 0.000000 0.295465 0.501912
v -0.252800 0.209248 0.437862
v -0.330718 0.245287 0.190940
v -0.503782 0.295465 0.000000
v -0.492592 0.209248 -0.284398
v -0.211493 0.245287 -0.366316
v -0.000000 0.295465 -0.458088
v 0.227200 0.209248 -0.393522
v 0.500667 0.245287 -0.289060
v 0.000000 0.320000 0.000000

f 6 5 4 3 2 1
f 1 2 8 7
f 2 3 9 8
f 3 4 10 9
f 4 5 11 10
f 5 6 12 11
f 6 1 7 12
f 7 8 13
f 8 9 13
f 9 10 13
f 10 11 13
f 11 12 13
f 12 7 13
f 19 18 17 16 15 14
f 14 15 21 20
f 15 16 22 21
f 16 17 23 22
f 17 18 24 23
f 18 19 25 24
f 19 14 20 25
f 20 21 26
f 21 22 26
f 22 23 26
f 23 24 26
f 24 25 26
f 25 20 26
f 32 31 30 29 28 27
f 27 28 34 33
f 28 29 35 34
f 29 30 36 35
f 30 31 37 36
f 31 32 38 37
f 32 27 33 38
f 33 34 39
f 34 35 39
f 35 36 39
f 36 37 39
f 37 38 39
f 38 33 39
f 45 44 43 42 41 40
f 40 41 47 46
f 41 42 48 47
f 42 43 49 48
f 43 44 50 49
f 44 45 51 50
f 45 40 46 51
f 46 47 52
f 47 48 52
f 48 49 52
f 49 50 52
f 50 51 52
f 51 46 52
f 58 57 56 55 54 53
f 53 54 60 59
f 54 55 61 60
f 55 56 62 61
f 56 57 63 62
f 57 58 64 63
f 58 53 59 64
f 59 60 65
f 60 61 65
f 61 62 65
f 62 63 65
f 63 64 65
f 64 59 65
f 71 70 69 68 67 66
f 66 67 73 72
f 67 68 74 73
f 68 69 75 74
f 69 70 76 75
f 70 71 77 76
f 71 66 72 77
f 72 73 78
f 73 74 78
f 74 75 78
f 75 76 78
f 76 77 78
f 77 72 78
f 79 81 80
f 79 82 81
f 79 83 82
f 79 84 83
f 79 85 84
f 79 86 85
f 79 87 86
f 79 88 87
f 79 89 88
f 79 90 89
f 79 91 90
f 79 80 91
f 80 81 93 92
f 81 82 94 93
f 82 83 95 94
f 83 84 96 95
f 84 85 97 96
f 85 86 98 97
f 86 87 99 98
f 87 88 100 99
f 88 89 101 100
f 89 90 102 101
f 90 91 103 102
f 91 80 92 103
f 92 93 105 104
f 93 94 106 105
f 94 95 107 106
f 95 96 108 107
f 96 97 109 108
f 97 98 110 109
f 98 99 111 110
f 99 100 112 111
f 100 101 113 112
f 101 102 114 113
f 102 103 115 114
f 103 92 104 115
f 104 105 116
f 105 106 116
f 106 107 116
f 107 108 116
f 108 109 116
f 109 110 116
f 110 111 116
f 111 112 116
f 112 113 116
f 113 114 116
f 114 115 116
f 115 104 116
